<mxfile host="Electron" modified="2023-07-16T04:45:27.512Z" agent="Mozilla/5.0 (Windows NT 10.0; Win64; x64) AppleWebKit/537.36 (KHTML, like Gecko) draw.io/21.6.1 Chrome/112.0.5615.204 Electron/24.6.1 Safari/537.36" etag="juGDE8TO6lu-n0gvTwsV" version="21.6.1" type="device">
  <diagram name="Page-1" id="t8G41cNeMRRgxncKhE5O">
    <mxGraphModel dx="683" dy="445" grid="1" gridSize="10" guides="1" tooltips="1" connect="1" arrows="1" fold="1" page="1" pageScale="1" pageWidth="583" pageHeight="413" math="0" shadow="0">
      <root>
        <mxCell id="0" />
        <mxCell id="1" parent="0" />
        <mxCell id="jFQS2LIJZBlmXgk27KdG-1" value="" style="whiteSpace=wrap;html=1;aspect=fixed;" vertex="1" parent="1">
          <mxGeometry x="40" y="40" width="350" height="350" as="geometry" />
        </mxCell>
        <mxCell id="jFQS2LIJZBlmXgk27KdG-13" value="" style="rounded=0;whiteSpace=wrap;html=1;" vertex="1" parent="1">
          <mxGeometry x="55" y="40" width="20" height="10" as="geometry" />
        </mxCell>
        <mxCell id="jFQS2LIJZBlmXgk27KdG-14" value="" style="rounded=0;whiteSpace=wrap;html=1;" vertex="1" parent="1">
          <mxGeometry x="105" y="40" width="20" height="10" as="geometry" />
        </mxCell>
        <mxCell id="jFQS2LIJZBlmXgk27KdG-15" value="" style="rounded=0;whiteSpace=wrap;html=1;" vertex="1" parent="1">
          <mxGeometry x="155" y="40" width="20" height="10" as="geometry" />
        </mxCell>
        <mxCell id="jFQS2LIJZBlmXgk27KdG-16" value="" style="rounded=0;whiteSpace=wrap;html=1;" vertex="1" parent="1">
          <mxGeometry x="205" y="40" width="20" height="10" as="geometry" />
        </mxCell>
        <mxCell id="jFQS2LIJZBlmXgk27KdG-17" value="" style="rounded=0;whiteSpace=wrap;html=1;" vertex="1" parent="1">
          <mxGeometry x="255" y="40" width="20" height="10" as="geometry" />
        </mxCell>
        <mxCell id="jFQS2LIJZBlmXgk27KdG-18" value="" style="rounded=0;whiteSpace=wrap;html=1;" vertex="1" parent="1">
          <mxGeometry x="305" y="40" width="20" height="10" as="geometry" />
        </mxCell>
        <mxCell id="jFQS2LIJZBlmXgk27KdG-19" value="" style="rounded=0;whiteSpace=wrap;html=1;" vertex="1" parent="1">
          <mxGeometry x="355" y="40" width="20" height="10" as="geometry" />
        </mxCell>
        <mxCell id="jFQS2LIJZBlmXgk27KdG-26" value="" style="rounded=0;whiteSpace=wrap;html=1;" vertex="1" parent="1">
          <mxGeometry x="40" y="55" width="10" height="20" as="geometry" />
        </mxCell>
        <mxCell id="jFQS2LIJZBlmXgk27KdG-27" value="" style="rounded=0;whiteSpace=wrap;html=1;" vertex="1" parent="1">
          <mxGeometry x="40" y="105" width="10" height="20" as="geometry" />
        </mxCell>
        <mxCell id="jFQS2LIJZBlmXgk27KdG-29" value="" style="rounded=0;whiteSpace=wrap;html=1;" vertex="1" parent="1">
          <mxGeometry x="40" y="155" width="10" height="20" as="geometry" />
        </mxCell>
        <mxCell id="jFQS2LIJZBlmXgk27KdG-31" value="" style="rounded=0;whiteSpace=wrap;html=1;" vertex="1" parent="1">
          <mxGeometry x="40" y="205" width="10" height="20" as="geometry" />
        </mxCell>
        <mxCell id="jFQS2LIJZBlmXgk27KdG-33" value="" style="rounded=0;whiteSpace=wrap;html=1;" vertex="1" parent="1">
          <mxGeometry x="40" y="255" width="10" height="20" as="geometry" />
        </mxCell>
        <mxCell id="jFQS2LIJZBlmXgk27KdG-35" value="" style="rounded=0;whiteSpace=wrap;html=1;" vertex="1" parent="1">
          <mxGeometry x="40" y="305" width="10" height="20" as="geometry" />
        </mxCell>
        <mxCell id="jFQS2LIJZBlmXgk27KdG-37" value="" style="rounded=0;whiteSpace=wrap;html=1;" vertex="1" parent="1">
          <mxGeometry x="40" y="355" width="10" height="20" as="geometry" />
        </mxCell>
        <mxCell id="jFQS2LIJZBlmXgk27KdG-39" value="" style="rounded=0;whiteSpace=wrap;html=1;" vertex="1" parent="1">
          <mxGeometry x="380" y="55" width="10" height="20" as="geometry" />
        </mxCell>
        <mxCell id="jFQS2LIJZBlmXgk27KdG-40" value="" style="rounded=0;whiteSpace=wrap;html=1;" vertex="1" parent="1">
          <mxGeometry x="380" y="105" width="10" height="20" as="geometry" />
        </mxCell>
        <mxCell id="jFQS2LIJZBlmXgk27KdG-42" value="" style="rounded=0;whiteSpace=wrap;html=1;" vertex="1" parent="1">
          <mxGeometry x="380" y="155" width="10" height="20" as="geometry" />
        </mxCell>
        <mxCell id="jFQS2LIJZBlmXgk27KdG-44" value="" style="rounded=0;whiteSpace=wrap;html=1;" vertex="1" parent="1">
          <mxGeometry x="380" y="205" width="10" height="20" as="geometry" />
        </mxCell>
        <mxCell id="jFQS2LIJZBlmXgk27KdG-46" value="" style="rounded=0;whiteSpace=wrap;html=1;" vertex="1" parent="1">
          <mxGeometry x="380" y="255" width="10" height="20" as="geometry" />
        </mxCell>
        <mxCell id="jFQS2LIJZBlmXgk27KdG-48" value="" style="rounded=0;whiteSpace=wrap;html=1;" vertex="1" parent="1">
          <mxGeometry x="380" y="305" width="10" height="20" as="geometry" />
        </mxCell>
        <mxCell id="jFQS2LIJZBlmXgk27KdG-50" value="" style="rounded=0;whiteSpace=wrap;html=1;" vertex="1" parent="1">
          <mxGeometry x="380" y="355" width="10" height="20" as="geometry" />
        </mxCell>
        <mxCell id="jFQS2LIJZBlmXgk27KdG-52" value="" style="rounded=0;whiteSpace=wrap;html=1;" vertex="1" parent="1">
          <mxGeometry x="55" y="380" width="20" height="10" as="geometry" />
        </mxCell>
        <mxCell id="jFQS2LIJZBlmXgk27KdG-53" value="" style="rounded=0;whiteSpace=wrap;html=1;" vertex="1" parent="1">
          <mxGeometry x="105" y="380" width="20" height="10" as="geometry" />
        </mxCell>
        <mxCell id="jFQS2LIJZBlmXgk27KdG-54" value="" style="rounded=0;whiteSpace=wrap;html=1;" vertex="1" parent="1">
          <mxGeometry x="155" y="380" width="20" height="10" as="geometry" />
        </mxCell>
        <mxCell id="jFQS2LIJZBlmXgk27KdG-55" value="" style="rounded=0;whiteSpace=wrap;html=1;" vertex="1" parent="1">
          <mxGeometry x="205" y="380" width="20" height="10" as="geometry" />
        </mxCell>
        <mxCell id="jFQS2LIJZBlmXgk27KdG-56" value="" style="rounded=0;whiteSpace=wrap;html=1;" vertex="1" parent="1">
          <mxGeometry x="255" y="380" width="20" height="10" as="geometry" />
        </mxCell>
        <mxCell id="jFQS2LIJZBlmXgk27KdG-57" value="" style="rounded=0;whiteSpace=wrap;html=1;" vertex="1" parent="1">
          <mxGeometry x="305" y="380" width="20" height="10" as="geometry" />
        </mxCell>
        <mxCell id="jFQS2LIJZBlmXgk27KdG-58" value="" style="rounded=0;whiteSpace=wrap;html=1;" vertex="1" parent="1">
          <mxGeometry x="355" y="380" width="20" height="10" as="geometry" />
        </mxCell>
        <mxCell id="jFQS2LIJZBlmXgk27KdG-65" value="20" style="text;html=1;strokeColor=none;fillColor=none;align=center;verticalAlign=middle;whiteSpace=wrap;rounded=0;" vertex="1" parent="1">
          <mxGeometry x="40" y="20" width="50" height="20" as="geometry" />
        </mxCell>
        <mxCell id="jFQS2LIJZBlmXgk27KdG-67" value="21" style="text;html=1;strokeColor=none;fillColor=none;align=center;verticalAlign=middle;whiteSpace=wrap;rounded=0;" vertex="1" parent="1">
          <mxGeometry x="90" y="20" width="50" height="20" as="geometry" />
        </mxCell>
        <mxCell id="jFQS2LIJZBlmXgk27KdG-68" value="22" style="text;html=1;strokeColor=none;fillColor=none;align=center;verticalAlign=middle;whiteSpace=wrap;rounded=0;" vertex="1" parent="1">
          <mxGeometry x="140" y="20" width="50" height="20" as="geometry" />
        </mxCell>
        <mxCell id="jFQS2LIJZBlmXgk27KdG-69" value="23" style="text;html=1;strokeColor=none;fillColor=none;align=center;verticalAlign=middle;whiteSpace=wrap;rounded=0;" vertex="1" parent="1">
          <mxGeometry x="190" y="20" width="50" height="20" as="geometry" />
        </mxCell>
        <mxCell id="jFQS2LIJZBlmXgk27KdG-70" value="24" style="text;html=1;strokeColor=none;fillColor=none;align=center;verticalAlign=middle;whiteSpace=wrap;rounded=0;" vertex="1" parent="1">
          <mxGeometry x="240" y="20" width="50" height="20" as="geometry" />
        </mxCell>
        <mxCell id="jFQS2LIJZBlmXgk27KdG-71" value="25" style="text;html=1;strokeColor=none;fillColor=none;align=center;verticalAlign=middle;whiteSpace=wrap;rounded=0;" vertex="1" parent="1">
          <mxGeometry x="290" y="20" width="50" height="20" as="geometry" />
        </mxCell>
        <mxCell id="jFQS2LIJZBlmXgk27KdG-72" value="26" style="text;html=1;strokeColor=none;fillColor=none;align=center;verticalAlign=middle;whiteSpace=wrap;rounded=0;" vertex="1" parent="1">
          <mxGeometry x="340" y="20" width="50" height="20" as="geometry" />
        </mxCell>
        <mxCell id="jFQS2LIJZBlmXgk27KdG-74" value="12" style="text;html=1;strokeColor=none;fillColor=none;align=center;verticalAlign=middle;whiteSpace=wrap;rounded=0;" vertex="1" parent="1">
          <mxGeometry x="40" y="390" width="50" height="20" as="geometry" />
        </mxCell>
        <mxCell id="jFQS2LIJZBlmXgk27KdG-75" value="11" style="text;html=1;strokeColor=none;fillColor=none;align=center;verticalAlign=middle;whiteSpace=wrap;rounded=0;" vertex="1" parent="1">
          <mxGeometry x="90" y="390" width="50" height="20" as="geometry" />
        </mxCell>
        <mxCell id="jFQS2LIJZBlmXgk27KdG-76" value="10" style="text;html=1;strokeColor=none;fillColor=none;align=center;verticalAlign=middle;whiteSpace=wrap;rounded=0;" vertex="1" parent="1">
          <mxGeometry x="140" y="390" width="50" height="20" as="geometry" />
        </mxCell>
        <mxCell id="jFQS2LIJZBlmXgk27KdG-77" value="9" style="text;html=1;strokeColor=none;fillColor=none;align=center;verticalAlign=middle;whiteSpace=wrap;rounded=0;" vertex="1" parent="1">
          <mxGeometry x="190" y="390" width="50" height="20" as="geometry" />
        </mxCell>
        <mxCell id="jFQS2LIJZBlmXgk27KdG-78" value="8" style="text;html=1;strokeColor=none;fillColor=none;align=center;verticalAlign=middle;whiteSpace=wrap;rounded=0;" vertex="1" parent="1">
          <mxGeometry x="240" y="390" width="50" height="20" as="geometry" />
        </mxCell>
        <mxCell id="jFQS2LIJZBlmXgk27KdG-79" value="7" style="text;html=1;strokeColor=none;fillColor=none;align=center;verticalAlign=middle;whiteSpace=wrap;rounded=0;" vertex="1" parent="1">
          <mxGeometry x="290" y="390" width="50" height="20" as="geometry" />
        </mxCell>
        <mxCell id="jFQS2LIJZBlmXgk27KdG-80" value="6" style="text;html=1;strokeColor=none;fillColor=none;align=center;verticalAlign=middle;whiteSpace=wrap;rounded=0;" vertex="1" parent="1">
          <mxGeometry x="340" y="390" width="50" height="20" as="geometry" />
        </mxCell>
        <mxCell id="jFQS2LIJZBlmXgk27KdG-89" value="19" style="text;html=1;strokeColor=none;fillColor=none;align=center;verticalAlign=middle;whiteSpace=wrap;rounded=0;rotation=0;" vertex="1" parent="1">
          <mxGeometry x="5" y="55" width="50" height="20" as="geometry" />
        </mxCell>
        <mxCell id="jFQS2LIJZBlmXgk27KdG-90" value="18" style="text;html=1;strokeColor=none;fillColor=none;align=center;verticalAlign=middle;whiteSpace=wrap;rounded=0;rotation=0;" vertex="1" parent="1">
          <mxGeometry x="5" y="105" width="50" height="20" as="geometry" />
        </mxCell>
        <mxCell id="jFQS2LIJZBlmXgk27KdG-91" value="17" style="text;html=1;strokeColor=none;fillColor=none;align=center;verticalAlign=middle;whiteSpace=wrap;rounded=0;rotation=0;" vertex="1" parent="1">
          <mxGeometry x="5" y="155" width="50" height="20" as="geometry" />
        </mxCell>
        <mxCell id="jFQS2LIJZBlmXgk27KdG-92" value="16" style="text;html=1;strokeColor=none;fillColor=none;align=center;verticalAlign=middle;whiteSpace=wrap;rounded=0;rotation=0;" vertex="1" parent="1">
          <mxGeometry x="5" y="205" width="50" height="20" as="geometry" />
        </mxCell>
        <mxCell id="jFQS2LIJZBlmXgk27KdG-93" value="15" style="text;html=1;strokeColor=none;fillColor=none;align=center;verticalAlign=middle;whiteSpace=wrap;rounded=0;rotation=0;" vertex="1" parent="1">
          <mxGeometry x="5" y="255" width="50" height="20" as="geometry" />
        </mxCell>
        <mxCell id="jFQS2LIJZBlmXgk27KdG-94" value="14" style="text;html=1;strokeColor=none;fillColor=none;align=center;verticalAlign=middle;whiteSpace=wrap;rounded=0;rotation=0;" vertex="1" parent="1">
          <mxGeometry x="5" y="305" width="50" height="20" as="geometry" />
        </mxCell>
        <mxCell id="jFQS2LIJZBlmXgk27KdG-95" value="13" style="text;html=1;strokeColor=none;fillColor=none;align=center;verticalAlign=middle;whiteSpace=wrap;rounded=0;rotation=0;" vertex="1" parent="1">
          <mxGeometry x="5" y="355" width="50" height="20" as="geometry" />
        </mxCell>
        <mxCell id="jFQS2LIJZBlmXgk27KdG-96" value="27" style="text;html=1;strokeColor=none;fillColor=none;align=center;verticalAlign=middle;whiteSpace=wrap;rounded=0;rotation=0;" vertex="1" parent="1">
          <mxGeometry x="375" y="55" width="50" height="20" as="geometry" />
        </mxCell>
        <mxCell id="jFQS2LIJZBlmXgk27KdG-97" value="0" style="text;html=1;strokeColor=none;fillColor=none;align=center;verticalAlign=middle;whiteSpace=wrap;rounded=0;rotation=0;" vertex="1" parent="1">
          <mxGeometry x="375" y="105" width="50" height="20" as="geometry" />
        </mxCell>
        <mxCell id="jFQS2LIJZBlmXgk27KdG-98" value="1" style="text;html=1;strokeColor=none;fillColor=none;align=center;verticalAlign=middle;whiteSpace=wrap;rounded=0;rotation=0;" vertex="1" parent="1">
          <mxGeometry x="375" y="155" width="50" height="20" as="geometry" />
        </mxCell>
        <mxCell id="jFQS2LIJZBlmXgk27KdG-99" value="2" style="text;html=1;strokeColor=none;fillColor=none;align=center;verticalAlign=middle;whiteSpace=wrap;rounded=0;rotation=0;" vertex="1" parent="1">
          <mxGeometry x="375" y="205" width="50" height="20" as="geometry" />
        </mxCell>
        <mxCell id="jFQS2LIJZBlmXgk27KdG-100" value="3" style="text;html=1;strokeColor=none;fillColor=none;align=center;verticalAlign=middle;whiteSpace=wrap;rounded=0;rotation=0;" vertex="1" parent="1">
          <mxGeometry x="375" y="255" width="50" height="20" as="geometry" />
        </mxCell>
        <mxCell id="jFQS2LIJZBlmXgk27KdG-101" value="4" style="text;html=1;strokeColor=none;fillColor=none;align=center;verticalAlign=middle;whiteSpace=wrap;rounded=0;rotation=0;" vertex="1" parent="1">
          <mxGeometry x="375" y="305" width="50" height="20" as="geometry" />
        </mxCell>
        <mxCell id="jFQS2LIJZBlmXgk27KdG-102" value="5" style="text;html=1;strokeColor=none;fillColor=none;align=center;verticalAlign=middle;whiteSpace=wrap;rounded=0;rotation=0;" vertex="1" parent="1">
          <mxGeometry x="375" y="355" width="50" height="20" as="geometry" />
        </mxCell>
      </root>
    </mxGraphModel>
  </diagram>
</mxfile>
